<svg width="50" height="49" viewBox="0 0 50 49" fill="none" xmlns="http://www.w3.org/2000/svg">
<g opacity="0.8">
<path d="M24.6454 48.94C38.2566 48.94 49.2908 37.9844 49.2908 24.47C49.2908 10.9556 38.2566 0 24.6454 0C11.0341 0 0 10.9556 0 24.47C0 37.9844 11.0341 48.94 24.6454 48.94Z" fill="white"/>
<path d="M20.4428 33.2341L34.2948 25.2935C34.4401 25.2101 34.5606 25.0902 34.6445 24.9459C34.7283 24.8016 34.7724 24.638 34.7724 24.4714C34.7724 24.3048 34.7283 24.1412 34.6445 23.9969C34.5606 23.8526 34.4401 23.7328 34.2948 23.6493L20.4428 15.7078C20.2973 15.6251 20.1325 15.5818 19.9649 15.582C19.7972 15.5823 19.6326 15.6262 19.4874 15.7094C19.3422 15.7926 19.2215 15.9121 19.1373 16.0561C19.0532 16.2001 19.0085 16.3634 19.0078 16.5299V32.4116C19.0084 32.5781 19.053 32.7415 19.1372 32.8856C19.2213 33.0296 19.342 33.1492 19.4872 33.2324C19.6324 33.3157 19.7971 33.3596 19.9648 33.3599C20.1324 33.3602 20.2973 33.3168 20.4428 33.2341Z" fill="#171717"/>
</g>
</svg>
